/* XPM */
static char * bracket_xpm[] = {
"60 21 4 1",
" 	c None",
".	c #D5D2D5",
"+	c #00A0D1",
"@	c #106994",
"............................................................",
"............................................................",
"............................................................",
"....++++++++++++++++++++++++++++++++++++++++++++++++++++++..",
"....+++..............+...................................+..",
"....+++..............+...................................+..",
"....+++..............+...@@@....@@@..........@......@....+..",
"....+++..............+..@...@..@...@.......@@@....@@@....+..",
"....+++..............+......@......@...@.....@......@....+..",
"....+++..............+.....@......@....@.....@......@....+..",
"....+++..............+....@......@...........@......@....+..",
"....+++..............+...@......@............@......@....+..",
"....+++..............+..@@.....@@......@.....@......@....+..",
"....+++..............+..@@@@@..@@@@@...@...@@@@@..@@@@@..+..",
"....+++..............+...................................+..",
"....+++..............+...................................+..",
"....++++++...........+++++++++++++++++++++++++++++++++++++..",
"............................................................",
"............................................................",
"............................................................",
"............................................................"};
