/* XPM */
static char * clippy_xpm[] = {
"32 71 7 1",
" 	c None",
".	c #7F7F7F",
"+	c #CCCCCC",
"@	c #E5E5E5",
"#	c #FFFFFF",
"$	c #FF0000",
"%	c #000000",
"              .......           ",
"             .........          ",
"            ...+@+@....         ",
"           ...+++++@@@..        ",
"          .++++......+@..       ",
"          .+++........+@..      ",
"         ..+++.    ...++..      ",
"        ...++.      ...+..      ",
"        ..+++.       ..+...     ",
"        .++...        .+@..     ",
"       ..++..         .++..     ",
"       ..++..         .++..     ",
"       .+++.          .+...     ",
"      ..++..          .+...     ",
"   ........           .+..      ",
" ...........          .+..      ",
" ..++++++.....        .+..      ",
"........+++.....      ++..      ",
"....##.....+++...    .++..      ",
"...#$#$$###...+...  ..++.       ",
"...$#$##$#%##..+..  ..++.       ",
" ..###$##%%%##.+........        ",
" ...##$#%%%%%#.............     ",
"   ...##%%%%%#$#...+++++++...   ",
"    ....#%%%####.....++++++...  ",
"    .......###........+++++++.. ",
"    ..+............#...+++++++. ",
"   ...+. ......  ..##$....++++..",
"   ..++.          ...#%%%.......",
"   ..+..           ...%%%%$###..",
"   ..+..           .....%###....",
"   ..+......        ........... ",
"   ..+....#.       ..+........  ",
"   ..+...++.       ..+. ..      ",
"   ..+...++.       ..+. ...     ",
"   ..+...++.       ..+. .##.    ",
"   ..+...++.       ..+. .++.    ",
"   ..+...++.       ..+. .++.    ",
"   ..+...++.       ..+. .++.    ",
"   ..+...++.       ..+. .++.    ",
"   ..+...++.       ..+. .++.    ",
"   ..+...++.       ..+. .++.    ",
"   ..+...++.       ..+. .++.    ",
"   ..+...++.       ..+...++.    ",
"   ..+...++.       ..+..+++.    ",
"   ..+...++.       ..+..+++.    ",
"   ..+...++.       ..+..+++.    ",
"   ..++...++.      .++..+++.    ",
"    .++...++..     .+. .+++.    ",
"    ..+...++..    .++. .+++.    ",
"    ..+....+..   ..++. .+++.    ",
"    ..++...+#......+.. .++..    ",
"    ..++. .+++...+++.. .++.     ",
"    ..++. ..++###++..  .++.     ",
"    ..++.  ..+++++..   .++.     ",
"     .++.  ........    .++.     ",
"     .++..  .......    .++.     ",
"     ..+..            ..+..     ",
"      .+...           .++..     ",
"      .+#..           .+...     ",
"      ..#..           .+...     ",
"      ..+#..         ..+..      ",
"      ..++..        ..++..      ",
"       .++#..      ...+..       ",
"       .+++...    ...++..       ",
"        ..+#........+++.        ",
"        ...+#......+++..        ",
"         ..++++++++++..         ",
"          ..+++++++...          ",
"           ..++++++...          ",
"            .........           "};
