/* XPM */
static char *duck_xpm[] = {
/* columns rows colors chars-per-pixel */
"288 32 17 1",
"  c black",
". c #00002A2AFFFF",
"X c #01012B2BFEFE",
"o c #848423232323",
"O c #F4F411111111",
"+ c #EAEA7D7D0909",
"@ c #CDCD9F9F1818",
"# c #CECEAEAE1111",
"$ c #D1D1B0B00E0E",
"% c #E5E5BFBF0000",
"& c #EAEAC4C40707",
"* c #FAFAD1D10505",
"= c #FEFED3D30000",
"- c #FFFFD4D40000",
"; c #FFFFD5D50505",
": c gray100",
"> c None",
/* pixels */
">>>>>>>>>>>>>>>>>>>>>>>>>>>>>>>>>>>>>>>>>>>>>>>>>>>>>>>>>>>>>>>>>>>>>>>>>>>>>>>>>>>>>>>>>>>>>>>>>>>>>>>>>>>>>>>>>>>>>>>>>>>>>>>>>>>>>>>>>>>>>>>>>>>>>>>>>>>>>>>>>>>>>>>>>>>>>>>>>>>>>>>>>>>>>>>>>>>>>>>>>>>>>>>>>>>>>>>>>>>>>>>>>>>>>>>>>>>>>>>>>>>>>>>>>>>>>>>>>>>>>>>>>>>>>>>>>>>>>>>>>>>>>>>>",
">>>>>>>>>>>>>>>>>>>>>>>>>>>>>>>>>>>>>>>>>>>>>>>>>>>>>>>>>>>>>>>>>>>>>>>>>>>>>>>>>>>>>>>>>>>>>>>>>>>>>>>>>>>>>>>>>>>>>>>>>>>>>>>>>>>>>>>>>>>>>>>>>>>>>>>>>>>>>>>>>>>>>>>>>>>>>>>>>>>>>>>>>>>>>>>>>>>>>>>>>>>>>>>>>>>>>>>>>>>>>>>>>>>>>>>>>>>>>>>>>>>>>>>>>>>>>>>>>>>>>>>>>>>>>>>>>>>>>>>>>>>>>>>>",
">>>>>>>>>>>>>>>>>>>>>>>>>>>>>>>>>>>>>>>>>>>>>>>>>>>>>>>>>>>>>>>>>>>>>>>>>>>>>>>>>>>>>>>>>>>>>>>>>>>>>>>>>>>>>>>>>>>>>>>>>>>>>>>>>>>>>>>>>>>>>>>>>>>>>>>>>>>>>>>>>>>>>>>>>>>>>>>>>> >>>>>>>>>>>>>>>>>>>>>>>>>>>>>>> >>>>>>>>>>>>>>>>>>>>>>>>>>>>>>>>>>>>>>>>>>>>>>>>>>>>>>>>>>>>>>>>>>>>>>>>>>>>>",
">>>>>>>>>>>>>>>>>>>>>>>>>>>>>>>>>>>>>>>>>>>>>>>>>>>>>>>>>>>>>>>>>>>>>>>>>>>>>>>>>>>>>>>>>>>>>>>>>>>>>>>>>>>>>>>>>>>>>>>>>>>>>>>>>>>>>>>>>>>>>>>>>>>>>>>>>>>>>>>>>>>>>>>>>>>>>>>>> + >>>>>>>>>>>>>>>>>>>>>>>>>>>>> + >>>>>>>>>>>>>>>>>>>>>>>>>>>>>>>>>>>>>>>>>>>>>>>>>>>>>>>>>>>>>>>>>>>>>>>>>>>>",
">>>>>>>>>>>>>>>>>>>>>>>>>>>>>>>>>>>>>>>>>>>>>>>>>>>>>>>>>>>>>>>>>>>>>>>>>>>>>>>>>>>>>>>>>>>>>>>>>>>>>>>>>>>>>>>>>>>>>>>>>>>>>>>>>>>>>>>>>>>>>>>>>>>>>>>>>>>>>>>>>>>>>>>>>>>>>>>> ++ >>>>>>>>>>>>>>>>>>>>>>>>>>>> +++ >>>>>>>>>>>>>>>>>>>>>>>>>>>>>>>>>>>  >>>>>>>>>>>>>>>>>>>>>>>>>>>>>>>>>>>>>>",
">>>>>>>>>>>>>>>>>>>>>>>>>>>>>>>>>>>>>>>>>>>>>>>>>>>>>>>>>>>>>>>>>>>>>>>>>>>>>>>>>>>>>>>>>>>>>>>>>>>>>>>>>>>>>>>>>>>>>>>>>>>>>>>>>>>>>>>>>>>>>>>>>>>>>>>>>>>>>>>>>>>>>>>>>>>>>>>> ++ >>>>>>>>>>>>>>>>>>>>>>>>>>>> +++ >>>>>>>>>>>>>>>>>>>>>>>>>>>>>>>>>  ++ >>>>>>>>>>>>>>>>>>>>>>>>>>>>>>>>>>>>>",
">>>>>>>>>>>>>>>>>>>>>>>>>>>>>>>>>>>>>>>>>>>>>>>>>>>>>>>>>>>>>>>>>>>>>>>>>>>>>>>>>>>>>>>>>>>>>>>>>>>>>>>>>>>>>>>>>>>>>>>>>>>>>>>>>>>>> >>>>>>>>>>>>>>>>>>>>>>>>>>>>>>>>>>>>>>>>> ---- >>>>>>>>>>>>>>>>>>>>>>>>>>> --- >>>>>>>>>>>>>>>>>>>>>>>>>>>>>>>> ++++ >>>>>>>>>>>>>>>>>>>>>>   >>>>>>>>>>>>",
">>>>>>>>>>>>>>>>>>>>>>>>>>> >>>>>>>>>>>>>>>>>>>>>>>>>>>>>>>>>>>>>>>>>>>>>>>>>>>>>>>>>>>>>>>>>>>>>>>>>>>>>>>>>>>>>>>>>>>>>>>>>>>>>>>> +  >>>>>>>>>>>>>>>>>>>>>>>>>>>>>>>>>>>>>>> - :- >>>>>>>>>>>>>>>>>>>>>>>>>>  ---  >>>>>>>>>>>>>>>>>>>>>>>>>>>>>> --++ >>>>>>>>>>>>>>>>>>>>>> OOO >>>    >>>>",
">>>>>>>>>>>>>>>>>>>>>>>>   - >>>>>>>>>>>>>>>>>>>>>>>>>>>>>>>>>>>>>>>>>>>>>>>>>>>>>>>>>>>>>>>>>>>>>>>>>>>>>>>>>>>>>>>>>>>>>>>>>>>>>>> +++   >>>>>>>>>>>>>>>>>>>>>>>>>>>>>>>>>>> --::- >>>>>>>>>>>>>>>>>>>>>>>>>> :---: >>>>>>>>>>>>>>>>>>>>>>>>>>>>> -: -+ >>>>>>>>>>>>>>>>> >>>> OOO >> OOOO >>>",
">>>>>>>>>>>   >>>>>>>>  ---- >>>>>>>>>>>>>>>>>>>>>>>>>>>>>>>>>>>>>>>>>>>>>>>>>>>>>>>>>>>>>>>>>>>>>>>>>>>>>>>>>>>>>>>>>>>>>>>>>>>>>>>> ++--- >>>>>>>>>>>>>>>>>>>>>>>>>>>>>>>>>> ----- >>>>>>>>>>>>>>>>>>>>>>>>>> ---- >>>>>>>>>>>>>>>>>>>>>>>>>>>>> --::- >>>>>>>>>>>>>>>>> O >>> OOO > OOOOO >>>",
">>>>>>>>>  --- >>>>>  -&&&&- >>>>>>>>>>>>   >>>>>>>>>>>>>>>>>>>>>>>>>>>>>>>>>>>>>>>>>>>>>>>>>>>>>>>>>>>>>>>>>>>>>>>>>>>>>>>>>>>>>>>>> +-- :- >>>>>>>>>>>>>>>>>>>>>>>>>>>>>>>>> ----- >>>>>>>>>>>>>>>>>>>>>>>>>> ---- >>>>>>>>>>>>>>>>>>>>>>>>>>>>> ----- >>>>>>>>>>>>>>>> OOO > OOO > OOOOO >>>>",
">>>>>>>  -- :-- >>> --&&&&& >>>>>>>>>>>  --- >>>>>>>>      >>>>>>>>>>>>   >>>>>>>>>>>>>>>>>>>>>>>>>>>>>>>>>>>>>>>>>>>>>>>>>>>>>>>>>>>> --::- >>>>>>>>>>>>>>>>>>>>>>>>>>>>>>>>>> --- >>>>>>>>>>>>>>>>>>>>>>>>>>>> -- >>>>>>>>>>>>>>>>>>>>>>>>>>>>>  ----- >>>>>>>>>>>>>>>> OOOO  OO > OOOOOO >>>>",
">>>>>> ++--::-- >> -&&&&&&- >>>>>>>>>  -- :-- >>>>   $$$$$$ >>>>>>>>>  --- >>>>>>>>>>>>>>>>>>>>>>>>>>>>>>>>>>>>>>>>>>>>>>>>>>>>>>>>>>> --;--- >>>>>>>>>>>>>>>>>>>>>>>>>>>>>>>>> --- >>>>>>>>>>>>>>>>>>>>>>>>>>>  -- >>>>>>>>>>>>>>>>>>>>>>>>>>>  -----  >>>>>>>>>>>>>>>>> OOOO >  >> OOOO  >>>>>",
">>>>> +++------ > -&&&&&&&- >>>>>>>> ++--::-- >>  $$$%%%%%$ >>>>>>>  --::-- >>>>      >>>>>>>>>>>>>>>>   >>>>>>>      >>>>>>>>>>>>>>>> ------  >>>>>>>>>>>>>>>>>>>>>>>>>>>>>>> -----  >>>>>>>>>>>>>>>>>>>>>>   -----   >>>>>>>>>>>>>>>>>>>>    ------- >>>>>>>>>>>>>>>>>> OOOO     >     >>>>>>>",
">>>>>>   ------  -&&&&&&&& >>>>>>>> +++------ > $$%%%%%%%  >>>>>>> ++-- :--  >  %%%%%% >>>>>>>>>>>>>  --- >>>>  %%%%%% >>>>>>>>>>>>>>>>  -----$    >>>>>>>>>>>>>>>>>>>>>>>>>>> ---$$$$ >>>>>>>>>>>>>>>>>>>  --$-----$$-  >>>>>>>>>>>>>>>>> $$$$$$---- >>>>>>>>>>>  >> :::- OOO OOOO %% >>>>>>>>>",
">>>>>>>>>   --- --&&&&&&-- >>>>>>>>>   ------- $$%%%%%%% >  >>>>> +++-------- %%------%    >>>>>>>  --::-- >  %%-----$-    >>>>>>>>>>>>>>  ---$----   >>>>>>>>>>>>>>>>>>>>>>> $----$%$ >>>>>>>>>>>>>>>>>> $---$------$--$ >>>>>>>>>>>>>>> $%%%%$----- >>>>>>>>>> ++  :o:o:-   OOOOO -$-    >>>>>",
">>>>>>>>>>>> ----$$$&&&&-   >>>>>>>>>>>   ------$$$%%%%%  -- >>>>>    --------$%%-----%---- >>>>> ++-- :--  --$------$----- >>>>>>>>>>>>>> ---$------- >>>>>>>>>>>>>>>>>>>>> $$----$%$$ >>>>>>>>>>>>>>>> $----$------$---$ >>>>>>>>>>>>> $$%%%%$-----$ >>>>>>>>>> ++-::o::- OOOOOO --OOO--- >>>>",
">>>>>>>>>>>>> -----$$$$$$--- >>>>>>>>>>>>>  ------$$$$$$--- >>>>>>>>>>     ---%$$%%%-%$---- >>>> +++----------$%-----$----- >>>>>>>>>>>>>> *--$------- >>>>>>>>>>>>>>>>>>>> $$$----$%%$$ >>>>>>>>>>>>>> $-----$------$---$$ >>>>>>>>>>>> $%%%%%$----$$$ >>>>>>>>>> ++:o:o:- OOOOOO -OOOOOOO >>>>",
">>>>>>>>>>>>>> ------------ >>>>>>>>>>>>>>>> ------------- >>>>>>>>>>>>>>>> ----%$$$$$$--  >>>>>>    ----------$%-----$--  >>>>>>>>>>>>>>>> ---$=------ >>>>>>>>>>>>>>>>>>> $%$----$%%%$ >>>>>>>>>>>>> $------$------$-----$ >>>>>>>>>> $$%%%%%$----$%$ >>>>>>>>>> ++-:::- OOOOOOO  -OOOOOO >>>>",
">>>>>>>>>>>>>> ----------- >>>>>>>>>>>>>>>>>> ----------- >>>>>>>>>>>>>>>>>> ---------$$ >>>>>>>>>>>>       ----$%----$$ >>>>>>>>>>>>>>>>>> ---$$-------  >>>>>>>>>>>>>>>>> $%$+--+$$%%$$ >>>>>>>>>>>> -------$+----+$------ >>>>>>>>> $$%%%%%%$+--+$%$ >>>>>>>>> ++------ OOOOO$OO --$$   >>>>>",
">>>>>>>>>>>>>>>   ---+--  >>>>>>>>>>>>>>>>>>>>   ---+--  >>>>>>>>>>>>>>>>>>>>   ---+--  >>>>>>>>>>>>>>>>>>>>    -$$$$$$$$ >>>>>>>>>>>>>>>>>>  --$$$$-$$--- >>>>>>>>>>>>>>>> $$$+--+-$%%%$ >>>>>>>>>>> $-------$+----+$------$ >>>>>>> $$%%%%%$$-+--+%%$ >>>>>>>> +          OO  OO $$$$$$ >>>>>>",
">>>>>>>>>>>>>>>>>>   +++ >>>>>>>>>>>>>>>>>>>>>>>>   +++ >>>>>>>>>>>>>>>>>>>>>>>>   +++ >>>>>>>>>>>>>>>>>>>>>>>>>   ++++  >>>>>>>>>>>>>>>>>>>> ----+------- >>>>>>>>>>>>>>>> $$ ++-++-$$$$ >>>>>>>>>>> $--------++--++$------$ >>>>>>> $%%%%%$$-++-++$%$ >>>>>>>>> >>>>>>>>>>   OOO ++++  >>>>>>>",
">>>>>>>>>>>>>>>>>>>>> ++ >>>>>>>>>>>>>>>>>>>>>>>>>>> ++ >>>>>>>>>>>>>>>>>>>>>>>>>>> ++ >>>>>>>>>>>>>>>>>>>>>>>>>>>>    >>>>>>>>>>>>>>>>>>>>>>>   +-+++-  - >>>>>>>>>>>>>>>>>  > +--+- $$ >>>>>>>>>>>>>  $$$$$$  +--+- $$$---$ >>>>>>> $$$$$$$--+- + $$$ >>>>>>>>>>>>>>>>>>>>>> OOO     >>>>>>>>>",
">>>>>>>>>>>>>>>>>>>>>>  >>>>>>>>>>>>>>>>>>>>>>>>>>>>>  >>>>>>>>>>>>>>>>>>>>>>>>>>>>>  >>>>>>>>>>>>>>>>>>>>>>>>>>>>>>>>>>>>>>>>>>>>>>>>>>>>>>>>>> +++@# >> >>>>>>>>>>>>>>>>>>>>>> ----  $ >>>>>>>>>>>>>>>      > -----  $$$$$ >>>>>>>> $    ----  > >  $ >>>>>>>>>>>>>>>>>>>>>> OO >>>>>>>>>>>>>>",
">>>>>>>>>>>>>>>>>>>>>>>>>>>>>>>>>>>>>>>>>>>>>>>>>>>>>>>>>>>>>>>>>>>>>>>>>>>>>>>>>>>>>>>>>>>>>>>>>>>>>>>>>>>>>>>>>>>>>>>>>>>>>>>>>>>>>>>>>>>>>>>>>     >>>>>>>>>>>>>>>>>>>>>>>>>>> -- >> >>>>>>>>>>>>>>>>>>>>>>>> ---- >     >>>>>>>>>> >>> --  >>>>>>> >>>>>>>>>>>>>>>>>>>>>> OO >>>>>>>>>>>>>>>",
">>>>>>>>>>>>>>>>>>>>>>>>>>>>>>>>>>>>>>>>>>>>>>>>>>>>>>>>>>>>>>>>>>>>>>>>>>>>>>>>>>>>>>>>>>>>>>>>>>>>>>>>>>>>>>>>>>>>>>>>>>>>>>>>>>>>>>>>>>>>>>>>>>>>>>>>>>>>>>>>>>>>>>>>>>>>>>>>>> - >>>>>>>>>>>>>>>>>>>>>>>>>>> ---- >>>>>>>>>>>>>>>>>>>>> - >>>>>>>>>>>>>>>>>>>>>>>>>>>>>> OOO >>>>>>>>>>>>>>>",
">>>>>>>>>>>>>>>>>>>>>>>>>>>>>>>>>>>>>>>>>>>>>>>>>>>>>>>>>>>>>>>>>>>>>>>>>>>>>>>>>>>>>>>>>>>>>>>>>>>>>>>>>>>>>>>>>>>>>>>>>>>>>>>>>>>>>>>>>>>>>>>>>>>>>>>>>>>>>>>>>>>>>>>>>>>>>>>>>>> >>>>>>>>>>>>>>>>>>>>>>>>>>>>>  -- >>>>>>>>>>>>>>>>>>>>>> >>>>>>>>>>>>>>>>>>>>>>>>>>>>>>> OOO >>>>>>>>>>>>>>>",
">>>>>>>>>>>>>>>>>>>>>>>>>>>>>>>>>>>>>>>>>>>>>>>>>>>>>>>>>>>>>>>>>>>>>>>>>>>>>>>>>>>>>>>>>>>>>>>>>>>>>>>>>>>>>>>>>>>>>>>>>>>>>>>>>>>>>>>>>>>>>>>>>>>>>>>>>>>>>>>>>>>>>>>>>>>>>>>>>>>>>>>>>>>>>>>>>>>>>>>>>>>>>>>>>>>  >>>>>>>>>>>>>>>>>>>>>>>>>>>>>>>>>>>>>>>>>>>>>>>>>>>>>>> OOO >>>>>>>>>>>>>>>",
">>>>>>>>>>>>>>>>>>>>>>>>>>>>>>>>>>>>>>>>>>>>>>>>>>>>>>>>>>>>>>>>>>>>>>>>>>>>>>>>>>>>>>>>>>>>>>>>>>>>>>>>>>>>>>>>>>>>>>>>>>>>>>>>>>>>>>>>>>>>>>>>>>>>>>>>>>>>>>>>>>>>>>>>>>>>>>>>>>>>>>>>>>>>>>>>>>>>>>>>>>>>>>>>>>>>>>>>>>>>>>>>>>>>>>>>>>>>>>>>>>>>>>>>>>>>>>>>>>>>>>>>>>>>>   >>>>>>>>>>>>>>>>",
">>>>>>>>>>>>>>>>>>>>>>>>>>>>>>>>>>>>>>>>>>>>>>>>>>>>>>>>>>>>>>>>>>>>>>>>>>>>>>>>>>>>>>>>>>>>>>>>>>>>>>>>>>>>>>>>>>>>>>>>>>>>>>>>>>>>>>>>>>>>>>>>>>>>>>>>>>>>>>>>>>>>>>>>>>>>>>>>>>>>>>>>>>>>>>>>>>>>>>>>>>>>>>>>>>>>>>>>>>>>>>>>>>>>>>>>>>>>>>>>>>>>>>>>>>>>>>>>>>>>>>>>>>>>>>>>>>>>>>>>>>>>>>>>",
">>>>>>>>>>>>>>>>>>>>>>>>>>>>>>>>>>>>>>>>>>>>>>>>>>>>>>>>>>>>>>>>>>>>>>>>>>>>>>>>>>>>>>>>>>>>>>>>>>>>>>>>>>>>>>>>>>>>>>>>>>>>>>>>>>>>>>>>>>>>>>>>>>>>>>>>>>>>>>>>>>>>>>>>>>>>>>>>>>>>>>>>>>>>>>>>>>>>>>>>>>>>>>>>>>>>>>>>>>>>>>>>>>>>>>>>>>>>>>>>>>>>>>>>>>>>>>>>>>>>>>>>>>>>>>>>>>>>>>>>>>>>>>>>",
">>>>>>>>>>>>>>>>>>>>>>>>>>>>>>>>>>>>>>>>>>>>>>>>>>>>>>>>>>>>>>>>>>>>>>>>>>>>>>>>>>>>>>>>>>>>>>>>>>>>>>>>>>>>>>>>>>>>>>>>>>>>>>>>>>>>>>>>>>>>>>>>>>>>>>>>>>>>>>>>>>>>>>>>>>>>>>>>>>>>>>>>>>>>>>>>>>>>>>>>>>>>>>>>>>>>>>>>>>>>>>>>>>>>>>>>>>>>>>>>>>>>>>>>>>>>>>>>>>>>>>>>>>>>>>>>>>>>>>>>>>>>>>>>"
};
