/* XPM */
static char * editwin_minib_xpm[] = {
"152 12 158 2",
" 	c None",
". 	c #0000FF",
"+ 	c #849689",
"@ 	c #6B9A7B",
"# 	c #619188",
"$ 	c #56889A",
"% 	c #598DA1",
"& 	c #346A6C",
"* 	c #234D42",
"= 	c #22413D",
"- 	c #213D41",
"; 	c #1E4041",
"> 	c #1D4040",
", 	c #21423E",
"' 	c #214041",
") 	c #20403C",
"! 	c #FF0000",
"~ 	c #007F00",
"{ 	c #B0C6B4",
"] 	c #8BCAA0",
"^ 	c #78BB9A",
"/ 	c #518D94",
"( 	c #4A7C96",
"_ 	c #2D5471",
": 	c #2F4963",
"< 	c #304368",
"[ 	c #2D4067",
"} 	c #294462",
"| 	c #29515A",
"1 	c #2C5D56",
"2 	c #2B5A52",
"3 	c #29574A",
"4 	c #B4CAB8",
"5 	c #8DC8A8",
"6 	c #78B594",
"7 	c #517D80",
"8 	c #53688E",
"9 	c #525A7E",
"0 	c #7B7E95",
"a 	c #6B6E8E",
"b 	c #595D86",
"c 	c #4A5388",
"d 	c #556894",
"e 	c #3D6571",
"f 	c #2E6258",
"g 	c #316858",
"h 	c #BAD0BB",
"i 	c #9CD2AF",
"j 	c #81B394",
"k 	c #566D73",
"l 	c #4F5978",
"m 	c #88868A",
"n 	c #C2BAB1",
"o 	c #948E8E",
"p 	c #8E878D",
"q 	c #696781",
"r 	c #303867",
"s 	c #2F4C67",
"t 	c #43807E",
"u 	c #4F9993",
"v 	c #BCD4C0",
"w 	c #A4DBAE",
"x 	c #8DBC8D",
"y 	c #5C6765",
"z 	c #696E7C",
"A 	c #9D978E",
"B 	c #B3AB9E",
"C 	c #D7D0BE",
"D 	c #A8A095",
"E 	c #827B79",
"F 	c #4A4B60",
"G 	c #263961",
"H 	c #458399",
"I 	c #5DADB9",
"J 	c #BCCAB2",
"K 	c #AED0AB",
"L 	c #9CC69E",
"M 	c #637775",
"N 	c #686E74",
"O 	c #6A6A69",
"P 	c #8A8783",
"Q 	c #EBE3D1",
"R 	c #9F9A95",
"S 	c #616063",
"T 	c #76757B",
"U 	c #2B3A5E",
"V 	c #528FA1",
"W 	c #59AAAB",
"X 	c #B2C1AC",
"Y 	c #9CB7A6",
"Z 	c #99B7A4",
"` 	c #698A8B",
" .	c #7F878D",
"..	c #CCC3BE",
"+.	c #DCCEC3",
"@.	c #F1DFCE",
"#.	c #DACBC1",
"$.	c #C4B8B7",
"%.	c #9B979C",
"&.	c #304362",
"*.	c #67A7B0",
"=.	c #70BCB6",
"-.	c #A4C3BE",
";.	c #82BCBD",
">.	c #86BAB3",
",.	c #6EA1A8",
"'.	c #758588",
").	c #EAE0CF",
"!.	c #E2CDBD",
"~.	c #D4B4A9",
"{.	c #D7B6AE",
"].	c #EEDDCF",
"^.	c #7C787C",
"/.	c #4D6577",
"(.	c #9DCDC7",
"_.	c #A3D5CD",
":.	c #A2BBBC",
"<.	c #8CC0C2",
"[.	c #8BC3BF",
"}.	c #85BCBC",
"|.	c #90A4A3",
"1.	c #DFD9CA",
"2.	c #DABBB0",
"3.	c #CE9596",
"4.	c #D29FA2",
"5.	c #D4CBBE",
"6.	c #5F6E64",
"7.	c #45725E",
"8.	c #639F72",
"9.	c #6DAA7A",
"0.	c #A8C1C4",
"a.	c #88BCC8",
"b.	c #7BB1B5",
"c.	c #A9C6C0",
"d.	c #D7D5C9",
"e.	c #F2E9D7",
"f.	c #ECE2CE",
"g.	c #DFD3BF",
"h.	c #EDDFCF",
"i.	c #F0E6D4",
"j.	c #B2B4AF",
"k.	c #6F8F8C",
"l.	c #427D51",
"m.	c #50994A",
"n.	c #798C8E",
"o.	c #6B9094",
"p.	c #6C908C",
"q.	c #9EA8A0",
"r.	c #B1ACA0",
"s.	c #B5ADA1",
"t.	c #B2AB9D",
"u.	c #A6A090",
"v.	c #B5ADA0",
"w.	c #B5ACA0",
"x.	c #A8A29D",
"y.	c #969CA1",
"z.	c #587460",
"A.	c #3D6E3B",
"                                                                . .                   . . .                                                                                                                                                                   . .         . .       + @ # $ % & * = - ; > , ' ) ",
"  ! !           ! !                                             . .                   . . .                                                                                           ~ ~ ~ ~ ~               ~ ~ ~ ~ ~ ~ ~                                   . .         . .       { ] ^ / ( _ : < [ } | 1 2 3 ",
"  ! ! !       ! ! !           !             !                                           . .                                                                                           ~ ~ ~ ~               ~           ~ ~           ~ ~ ~ ~ ~               . .         . .       4 5 6 7 8 9 0 a b c d e f g ",
"    ! ! !   ! ! !           ! !             ! !               . . . .                   . .   . .                       . . . . . .           . . .     . . .                         ~ ~ ~               ~           ~   ~         ~ ~ ~ ~ ~ ~ ~             . . . . . . . . . .   h i j k l m n o p q r s t u ",
"      ! ! ! ! !           ! ! !             ! ! !             . . . .                   . . . . . . .                 . . . . . . .           . . .     . . .                         ~ ~   ~           ~           ~     ~       ~ ~ ~       ~ ~ ~           . . . . . . . . . .   v w x y z A B C D E F G H I ",
"        ! ! !           ! ! ! ! ! ! ! ! ! ! ! ! ! !               . .                   . . .     . .                 . .         .             . .       . .                         ~     ~ ~       ~           ~       ~       ~ ~           ~ ~           . .         . .       J K L M N O P Q R S T U V W ",
"        ! ! !           ! ! ! ! ! ! ! ! ! ! ! ! ! !               . .                   . .         . .                 . . . .                 . .       . .                                 ~     ~ ~ ~ ~ ~ ~ ~       ~         ~ ~           ~ ~           . .         . .       X Y Z `  ...+.@.#.$.%.&.*.=.",
"      ! ! ! ! !           ! ! !             ! ! !                 . .                   . .         . .                     . . . .             . .       . .           ~ ~                   ~     ~           ~     ~           ~ ~ ~       ~ ~ ~           . .         . .       -.;.>.,.'.).!.~.{.].^./.(._.",
"    ! ! !   ! ! !           ! !             ! !                   . .                   . .       . . .             . .         . .             . .       . .             ~ ~               ~ ~     ~           ~   ~               ~ ~ ~ ~ ~ ~ ~             . .         . .       :.<.[.}.|.1.2.3.4.5.6.7.8.9.",
"  ! ! !       ! ! !           !             !               . . . . . . . .           . . . . . . . .               . . . . . . . .               . . . . . . .             ~ ~ ~         ~ ~       ~           ~ ~                   ~ ~ ~ ~ ~               . . . .     . . . .   0.a.b.c.d.e.f.g.h.i.j.k.l.m.",
"  ! !           ! !                                         . . . . . . . .           . . . . . . .                     . . . . .                 . . . . . . .                 ~ ~ ~ ~ ~ ~         ~ ~ ~ ~ ~ ~ ~                                               . . .       . . .   n.o.p.q.r.s.t.u.v.w.x.y.z.A.",
"                                                                                                                                                                                                                                                                                                                "};
