/* XPM */
static char * miniduck_xpm[] = {
"38 11 12 1",
" 	c None",
".	c #000000",
"+	c #4D4D4D",
"@	c #FFFFFF",
"#	c #FFD400",
"$	c #A6A6A6",
"%	c #EA7D09",
"&	c #D1B00E",
"*	c #E5BF00",
"=	c #A2A2A2",
"-	c #9B9B9B",
";	c #9D9D9D",
"    ...                +++            ",
"  ..@@#.    ......   ++@@$+    ++++++ ",
" .%#@.##. ..&&****. +=$@.$$+ ++--;;;;+",
".%%#####..&&*****. +==$$$$$++--;;;;;+ ",
" ..#####.&&*****... ++$$$$$+--;;;;;+++",
"   ....#####&&&&##.   ++++$$$$$----$$+",
"       .##########.       +$$$$$$$$$$+",
"        .########.         +$$$$$$$$+ ",
"         ....%#..           ++++=$++  ",
"             .%.                +=+   ",
"              .                  +    "};
